<svg xmlns="http://www.w3.org/2000/svg" width="240" height="200" viewBox="0 0 240 200"><rect width="240" height="200" fill="#ffe94a"/><g stroke="#111" stroke-width="3.5" stroke-linecap="round" stroke-linejoin="round"><ellipse cx="120" cy="178" rx="58" ry="7" fill="#111" opacity=".12" stroke="none"/><path d="M120 28c34 0 58 52 58 90 0 36-25 58-58 58s-58-22-58-58c0-38 24-90 58-90Z" fill="#fffaf0"/><path d="M62 112l16 12 14-14 14 14 14-14 14 14 14-14 14 14 16-12" fill="none"/><circle cx="101" cy="88" r="5" fill="#111"/><circle cx="139" cy="88" r="5" fill="#111"/><path d="M108 102q12 10 24 0" fill="none"/><path d="M196 40v34m0-34 18-5v30" fill="none"/><ellipse cx="189" cy="75" rx="8" ry="6" fill="#111"/><ellipse cx="207" cy="66" rx="8" ry="6" fill="#111"/></g></svg>
